<svg xmlns="http://www.w3.org/2000/svg" width="92" height="93" fill="none" viewBox="0 0 92 93"><g filter="url(#filter0_d_2066_41374)"><path fill="#4155F5" d="M69 66C53.0769 50.0769 38.9231 50.0769 23 66C38.9231 50.0769 38.9231 35.9231 23 20C38.9231 35.9231 53.0769 35.9231 69 20C53.0769 35.9231 53.0769 50.0769 69 66Z"/><rect width="28" height="28" x="60" y="29" fill="#000" fill-opacity=".15"/><rect width="28" height="28" x="4" y="57" fill="#000" fill-opacity=".05"/><rect width="28" height="28" x="32" fill="#000" fill-opacity=".05"/><path fill="#F9F7F3" stroke="#000" d="M50.3169 63.5528C51.3169 63.0528 45.8167 47.9279 49.3167 47.0529C53.3167 46.0529 54.8169 59.5528 54.8169 59.5528C54.8169 59.5528 54.3169 54.5528 57.3169 54.5528C60.3169 54.5529 60.5 59.0528 60.5 59.0528C60.5 59.0528 60.817 54.5528 63.8169 55.0528C66.3357 55.4727 66.3873 58.0074 66.339 58.8096C66.4304 58.1938 66.9005 56.65 69.3169 57.0528C72.3169 57.5529 71.3169 65.0529 70.3169 67.5528C69.317 70.0528 66.8169 72.0529 66.3169 73.5528C65.817 75.0528 67.3169 77.0529 66.3169 77.5528C65.317 78.0528 53.317 78.5528 52.3169 77.5528C51.3169 76.5529 52.817 76.0528 52.3169 75.0528C51.8048 74.0288 48.8165 72.553 47.3165 69.6785C45.8165 66.8039 39.8474 61.5327 42.8169 59.5528C45.8165 57.5529 49.317 64.0528 50.3169 63.5528Z"/><path stroke="#000" d="M56 63L57 70.5M60.5 63V69.5M65 64L64 69.5"/></g><defs><filter id="filter0_d_2066_41374" width="92" height="93" x="0" y="0" color-interpolation-filters="sRGB" filterUnits="userSpaceOnUse"><feFlood flood-opacity="0" result="BackgroundImageFix"/><feColorMatrix in="SourceAlpha" result="hardAlpha" type="matrix" values="0 0 0 0 0 0 0 0 0 0 0 0 0 0 0 0 0 0 127 0"/><feOffset dy="4"/><feGaussianBlur stdDeviation="2"/><feComposite in2="hardAlpha" operator="out"/><feColorMatrix type="matrix" values="0 0 0 0 0 0 0 0 0 0 0 0 0 0 0 0 0 0 0.25 0"/><feBlend in2="BackgroundImageFix" mode="normal" result="effect1_dropShadow_2066_41374"/><feBlend in="SourceGraphic" in2="effect1_dropShadow_2066_41374" mode="normal" result="shape"/></filter></defs></svg>